<svg width="1584" height="396" viewBox="0 0 1584 396" fill="none" xmlns="http://www.w3.org/2000/svg">
<rect width="1584" height="396" fill="#F5F5F5"/>
<g id="Awesome banner" clip-path="url(#clip0_0_1)">
<rect width="1584" height="396" fill="url(#paint0_linear_0_1)"/>
<ellipse id="Ellipse 2" cx="323" cy="64" rx="285" ry="288" fill="url(#paint1_linear_0_1)" fill-opacity="0.1"/>
<g id="copyright">
<path d="M75.95 334.52L72.30 334.52L72.30 311.16L77.20 311.16L83.70 330.04Q83.60 329.02 83.50 327.62Q83.41 326.23 83.33 324.79Q83.25 323.35 83.25 322.23L83.25 311.16L86.90 311.16L86.90 334.52L82 334.52L75.57 315.64Q75.63 316.57 75.73 317.88Q75.82 319.19 75.89 320.57Q75.95 321.94 75.95 323.10L75.95 334.52M98.80 334.84Q96.46 334.84 94.67 333.96Q92.88 333.08 91.89 331.53Q90.90 329.98 90.90 327.93Q90.90 325.78 92.13 324.18Q93.36 322.58 95.34 322.17L95.34 322.10Q93.65 321.75 92.61 320.38Q91.57 319 91.57 317.11Q91.57 315.26 92.48 313.85Q93.39 312.44 95.02 311.64Q96.66 310.84 98.80 310.84Q100.94 310.84 102.59 311.64Q104.24 312.44 105.15 313.85Q106.06 315.26 106.06 317.11Q106.06 319 105.01 320.38Q103.95 321.75 102.26 322.10L102.26 322.17Q104.24 322.58 105.47 324.18Q106.70 325.78 106.70 327.93Q106.70 329.98 105.71 331.53Q104.72 333.08 102.93 333.96Q101.14 334.84 98.80 334.84M98.80 320.73Q100.30 320.73 101.23 319.82Q102.16 318.90 102.16 317.46Q102.16 315.99 101.23 315.08Q100.30 314.17 98.80 314.17Q97.30 314.17 96.37 315.08Q95.44 315.99 95.44 317.46Q95.44 318.90 96.37 319.82Q97.30 320.73 98.80 320.73M98.80 331.45Q100.56 331.45 101.68 330.42Q102.80 329.40 102.80 327.74Q102.80 326.04 101.68 325Q100.56 323.96 98.80 323.96Q97.04 323.96 95.92 325Q94.80 326.04 94.80 327.74Q94.80 329.40 95.92 330.42Q97.04 331.45 98.80 331.45M114.35 334.52L110.70 334.52L110.70 311.16L115.60 311.16L122.10 330.04Q122 329.02 121.90 327.62Q121.81 326.23 121.73 324.79Q121.65 323.35 121.65 322.23L121.65 311.16L125.30 311.16L125.30 334.52L120.40 334.52L113.97 315.64Q114.03 316.57 114.13 317.88Q114.22 319.19 114.29 320.57Q114.35 321.94 114.35 323.10" fill="white" fill-opacity="0.9"/>
<path d="M161.48 325.24L151.24 325.24L151.24 322.68L161.48 322.68" fill="white" fill-opacity="0.9"/>
<path d="M195.02 334.84Q191.82 334.84 189.96 333.05Q188.11 331.26 188.11 328.12L188.11 317.56Q188.11 314.42 189.96 312.63Q191.82 310.84 195.02 310.84Q198.15 310.84 200.01 312.65Q201.87 314.46 201.87 317.56L198.99 317.56Q198.99 315.58 197.95 314.50Q196.91 313.43 195.02 313.43Q193.13 313.43 192.06 314.50Q190.99 315.58 190.99 317.56L190.99 328.12Q190.99 330.10 192.06 331.18Q193.13 332.25 195.02 332.25Q196.91 332.25 197.95 331.18Q198.99 330.10 198.99 328.12L201.87 328.12Q201.87 331.22 200.01 333.03Q198.15 334.84 195.02 334.84" fill="white" fill-opacity="0.9"/>
<path d="M213.96 334.84Q210.83 334.84 209 333.02Q207.18 331.19 207.18 327.80L207.18 317.88Q207.18 314.49 209 312.66Q210.83 310.84 213.96 310.84Q217.10 310.84 218.92 312.66Q220.75 314.49 220.75 317.85L220.75 327.80Q220.75 331.19 218.92 333.02Q217.10 334.84 213.96 334.84M213.96 332.25Q215.85 332.25 216.86 331.18Q217.87 330.10 217.87 328.12L217.87 317.56Q217.87 315.58 216.86 314.50Q215.85 313.43 213.96 313.43Q212.11 313.43 211.08 314.50Q210.06 315.58 210.06 317.56L210.06 328.12Q210.06 330.10 211.08 331.18Q212.11 332.25 213.96 332.25" fill="white" fill-opacity="0.9"/>
<path d="M228.65 334.52L225.87 334.52L225.87 311.16L230.12 311.16L233.10 321.27L236.20 311.16L240.46 311.16L240.46 334.52L237.67 334.52L237.67 323.48Q237.67 321.91 237.72 319.88Q237.77 317.85 237.87 315.77Q237.96 313.69 238.09 312.02L234.31 324.09L231.82 324.09L228.20 312.31Q228.46 314.68 228.55 317.50Q228.65 320.31 228.65 323.48" fill="white" fill-opacity="0.9"/>
<path d="M247.85 334.52L245.07 334.52L245.07 311.16L249.32 311.16L252.30 321.27L255.40 311.16L259.66 311.16L259.66 334.52L256.87 334.52L256.87 323.48Q256.87 321.91 256.92 319.88Q256.97 317.85 257.07 315.77Q257.16 313.69 257.29 312.02L253.51 324.09L251.02 324.09L247.40 312.31Q247.66 314.68 247.75 317.50Q247.85 320.31 247.85 323.48" fill="white" fill-opacity="0.9"/>
<path d="M271.56 334.84Q268.30 334.84 266.57 333.03Q264.84 331.22 264.84 328.12L264.84 311.16L267.72 311.16L267.72 328.12Q267.72 330.04 268.67 331.16Q269.61 332.28 271.56 332.28Q273.48 332.28 274.44 331.16Q275.40 330.04 275.40 328.12L275.40 311.16L278.28 311.16L278.28 328.12Q278.28 331.26 276.57 333.05Q274.86 334.84 271.56 334.84" fill="white" fill-opacity="0.9"/>
<path d="M286.83 334.52L284.04 334.52L284.04 311.16L287.88 311.16L295.02 331.16Q294.95 330.36 294.87 329.19Q294.79 328.02 294.75 326.73Q294.70 325.43 294.70 324.28L294.70 311.16L297.48 311.16L297.48 334.52L293.64 334.52L286.54 314.52Q286.60 315.29 286.67 316.46Q286.73 317.62 286.78 318.92Q286.83 320.22 286.83 321.40" fill="white" fill-opacity="0.9"/>
<path d="M316.20 334.52L303.72 334.52L303.72 331.90L308.49 331.90L308.49 313.78L303.72 313.78L303.72 311.16L316.20 311.16L316.20 313.78L311.43 313.78L311.43 331.90L316.20 331.90" fill="white" fill-opacity="0.9"/>
<path d="M330.60 334.52L327.72 334.52L327.72 313.78L321.32 313.78L321.32 311.16L337 311.16L337 313.78L330.60 313.78" fill="white" fill-opacity="0.9"/>
<path d="M349.80 334.52L346.92 334.52L346.92 325.78L339.88 311.16L342.95 311.16L347.50 320.76Q347.88 321.56 348.11 322.12Q348.33 322.68 348.39 322.94Q348.46 322.68 348.70 322.12Q348.94 321.56 349.32 320.76L353.87 311.16L356.84 311.16L349.80 325.78" fill="white" fill-opacity="0.9"/>
<path d="M382.83 334.52L380.04 334.52L380.04 311.16L383.88 311.16L391.02 331.16Q390.95 330.36 390.87 329.19Q390.79 328.02 390.75 326.73Q390.70 325.43 390.70 324.28L390.70 311.16L393.48 311.16L393.48 334.52L389.64 334.52L382.54 314.52Q382.60 315.29 382.67 316.46Q382.73 317.62 382.78 318.92Q382.83 320.22 382.83 321.40" fill="white" fill-opacity="0.9"/>
<path d="M405.96 334.84Q402.83 334.84 401 333.02Q399.18 331.19 399.18 327.80L399.18 317.88Q399.18 314.49 401 312.66Q402.83 310.84 405.96 310.84Q409.10 310.84 410.92 312.66Q412.75 314.49 412.75 317.85L412.75 327.80Q412.75 331.19 410.92 333.02Q409.10 334.84 405.96 334.84M405.96 332.25Q407.85 332.25 408.86 331.18Q409.87 330.10 409.87 328.12L409.87 317.56Q409.87 315.58 408.86 314.50Q407.85 313.43 405.96 313.43Q404.11 313.43 403.08 314.50Q402.06 315.58 402.06 317.56L402.06 328.12Q402.06 330.10 403.08 331.18Q404.11 332.25 405.96 332.25" fill="white" fill-opacity="0.9"/>
<path d="M424.55 334.52L418.51 334.52L418.51 311.16L424.55 311.16Q426.83 311.16 428.47 312.02Q430.12 312.89 431.03 314.46Q431.95 316.02 431.95 318.17L431.95 327.48Q431.95 329.62 431.03 331.21Q430.12 332.79 428.47 333.66Q426.83 334.52 424.55 334.52M421.39 313.72L421.39 331.96L424.55 331.96Q426.67 331.96 427.87 330.78Q429.07 329.59 429.07 327.48L429.07 318.17Q429.07 316.09 427.87 314.90Q426.67 313.72 424.55 313.72" fill="white" fill-opacity="0.9"/>
<path d="M451.40 334.52L437.96 334.52L437.96 311.16L451.40 311.16L451.40 313.78L440.81 313.78L440.81 321.02L450.28 321.02L450.28 323.58L440.81 323.58L440.81 331.90L451.40 331.90" fill="white" fill-opacity="0.9"/>
<path d="M463.69 334.84Q460.30 334.84 458.28 333.05Q456.27 331.26 456.27 328.12L459.15 328.12Q459.15 330.07 460.39 331.18Q461.64 332.28 463.69 332.28Q465.67 332.28 466.86 331.13Q468.04 329.98 468.04 328.12Q468.04 326.71 467.29 325.67Q466.54 324.63 465.13 324.25L461.58 323.26Q459.37 322.62 458.11 320.97Q456.84 319.32 456.84 317.08Q456.84 315.22 457.67 313.82Q458.51 312.41 460.01 311.62Q461.51 310.84 463.47 310.84Q465.45 310.84 466.97 311.62Q468.49 312.41 469.35 313.80Q470.22 315.19 470.22 317.02L467.34 317.02Q467.34 315.42 466.25 314.41Q465.16 313.40 463.47 313.40Q461.77 313.40 460.71 314.41Q459.66 315.42 459.66 317.02Q459.66 318.30 460.35 319.21Q461.03 320.12 462.28 320.47L465.93 321.50Q468.27 322.14 469.56 323.91Q470.86 325.69 470.86 328.12Q470.86 331.19 468.91 333.02Q466.95 334.84 463.69 334.84" fill="white" fill-opacity="0.9"/>
</g>
<path d="M76.74 197.64L72.21 197.64L72.21 180.12L76.74 180.12Q78.45 180.12 79.68 180.77Q80.92 181.42 81.60 182.59Q82.29 183.77 82.29 185.38L82.29 192.36Q82.29 193.97 81.60 195.16Q80.92 196.34 79.68 196.99Q78.45 197.64 76.74 197.64M74.37 182.04L74.37 195.72L76.74 195.72Q78.33 195.72 79.23 194.83Q80.13 193.94 80.13 192.36L80.13 185.38Q80.13 183.82 79.23 182.93Q78.33 182.04 76.74 182.04" fill="white" fill-opacity="0.7"/>
<path d="M91.60 197.83Q89.22 197.83 87.82 196.44Q86.42 195.05 86.42 192.55L86.42 189.53Q86.42 187.01 87.81 185.63Q89.20 184.25 91.60 184.25Q94 184.25 95.39 185.63Q96.78 187.01 96.78 189.53L96.78 192.55Q96.78 195.05 95.38 196.44Q93.98 197.83 91.60 197.83M91.60 195.91Q93.02 195.91 93.82 195.12Q94.62 194.33 94.62 192.79L94.62 189.29Q94.62 187.75 93.82 186.96Q93.02 186.17 91.60 186.17Q90.21 186.17 89.39 186.96Q88.58 187.75 88.58 189.29L88.58 192.79Q88.58 194.33 89.39 195.12Q90.21 195.91 91.60 195.91" fill="white" fill-opacity="0.7"/>
<path d="M104.08 197.64L101.70 197.64L99.54 184.44L101.42 184.44L102.76 193.75Q102.83 194.28 102.90 194.92Q102.98 195.55 NaN 195.96Q103.05 195.55 103.11 194.92Q103.17 194.28 103.26 193.75L104.92 184.44L107.08 184.44L108.74 193.75Q108.83 194.28 108.92 194.92QNaN 195.55 109.02 195.96Q109.07 195.55 109.14 194.92Q109.22 194.28 109.29 193.75L110.68 184.44L112.46 184.44L110.20 197.64L107.82 197.64L106.31 188.52Q106.22 187.85 106.13 187.09Q106.05 186.34 NaN 185.93Q105.98 186.34 105.88 187.09Q105.78 187.85 105.66 188.52" fill="white" fill-opacity="0.7"/>
<path d="M117.57 197.64L115.41 197.64L115.41 184.44L117.57 184.44L117.57 186.96L117.59 186.96Q117.76 185.64 118.67 184.92Q119.58 184.20 121.10 184.20Q123.09 184.20 124.26 185.42Q125.44 186.65 125.44 188.76L125.44 197.64L123.28 197.64L123.28 189.14Q123.28 187.63 122.52 186.83Q121.77 186.02 120.47 186.02Q119.13 186.02 118.35 186.86Q117.57 187.70 117.57 189.24" fill="white" fill-opacity="0.7"/>
<path d="M140.80 197.64L136.72 197.64Q134.97 197.64 133.92 196.62Q132.88 195.60 132.88 193.92L132.88 182.09L128.32 182.09L128.32 180.12L135.04 180.12L135.04 193.92Q135.04 194.74 135.50 195.20Q135.95 195.67 136.72 195.67L140.80 195.67" fill="white" fill-opacity="0.7"/>
<path d="M149.20 197.83Q146.82 197.83 145.42 196.44Q144.02 195.05 144.02 192.55L144.02 189.53Q144.02 187.01 145.41 185.63Q146.80 184.25 149.20 184.25Q151.60 184.25 152.99 185.63Q154.38 187.01 154.38 189.53L154.38 192.55Q154.38 195.05 152.98 196.44Q151.58 197.83 149.20 197.83M149.20 195.91Q150.62 195.91 151.42 195.12Q152.22 194.33 152.22 192.79L152.22 189.29Q152.22 187.75 151.42 186.96Q150.62 186.17 149.20 186.17Q147.81 186.17 146.99 186.96Q146.18 187.75 146.18 189.29L146.18 192.79Q146.18 194.33 146.99 195.12Q147.81 195.91 149.20 195.91" fill="white" fill-opacity="0.7"/>
<path d="M162.45 197.88Q160.41 197.88 159.21 196.74Q158.01 195.60 158.01 193.75Q158.01 192.53 158.56 191.62Q159.11 190.70 160.10 190.19Q161.08 189.67 162.35 189.67L166.43 189.67L166.43 188.64Q166.43 186.07 163.62 186.07Q162.38 186.07 161.61 186.53Q160.84 186.98 160.79 187.80L158.63 187.80Q158.75 186.24 160.08 185.22Q161.42 184.20 163.62 184.20Q166.02 184.20 167.31 185.35Q168.59 186.50 168.59 188.57L168.59 197.64L166.46 197.64L166.46 195.24L166.41 195.24Q166.22 196.46 165.18 197.17Q164.15 197.88 162.45 197.88M162.98 196.06Q164.56 196.06 165.50 195.29Q166.43 194.52 166.43 193.20L166.43 191.35L162.59 191.35Q161.54 191.35 160.88 191.99Q160.22 192.62 160.22 193.68Q160.22 194.78 160.95 195.42Q161.68 196.06 162.98 196.06" fill="white" fill-opacity="0.7"/>
<path d="M177.23 197.88Q175.26 197.88 174.08 196.56Q172.89 195.24 172.89 192.98L172.89 189.12Q172.89 186.84 174.06 185.52Q175.24 184.20 177.23 184.20Q178.72 184.20 179.69 184.94Q180.66 185.69 180.86 186.96L180.88 186.96L180.83 183.96L180.83 180.12L182.99 180.12L182.99 197.64L180.83 197.64L180.83 195.12L180.81 195.12Q180.64 196.42 179.68 197.15Q178.72 197.88 177.23 197.88M177.95 196.01Q179.30 196.01 180.06 195.17Q180.83 194.33 180.83 192.84L180.83 189.24Q180.83 187.75 180.06 186.91Q179.30 186.07 177.95 186.07Q176.58 186.07 175.82 186.78Q175.05 187.49 175.05 189.12L175.05 192.96Q175.05 194.57 175.82 195.29Q176.58 196.01 177.95 196.01" fill="white" fill-opacity="0.7"/>
<path d="M203.01 197.64L200.80 197.64L205.36 180.12L208.26 180.12L212.80 197.64L210.62 197.64L209.46 192.98L204.16 192.98L203.01 197.64M205.94 185.74L204.59 191.16L209.01 191.16L207.66 185.76Q207.28 184.22 207.06 183.19Q206.85 182.16 206.80 181.85Q206.75 182.16 206.54 183.19Q206.32 184.22 205.94 185.74" fill="white" fill-opacity="0.7"/>
<path d="M218.37 197.64L216.21 197.64L216.21 184.44L218.37 184.44L218.37 186.96L218.39 186.96Q218.56 185.64 219.47 184.92Q220.38 184.20 221.90 184.20Q223.89 184.20 225.06 185.42Q226.24 186.65 226.24 188.76L226.24 197.64L224.08 197.64L224.08 189.14Q224.08 187.63 223.32 186.83Q222.57 186.02 221.27 186.02Q219.93 186.02 219.15 186.86Q218.37 187.70 218.37 189.24" fill="white" fill-opacity="0.7"/>
<path d="M234.83 197.88Q232.86 197.88 231.68 196.56Q230.49 195.24 230.49 192.98L230.49 189.12Q230.49 186.84 231.66 185.52Q232.84 184.20 234.83 184.20Q236.32 184.20 237.29 184.94Q238.26 185.69 238.46 186.96L238.48 186.96L238.43 183.96L238.43 180.12L240.59 180.12L240.59 197.64L238.43 197.64L238.43 195.12L238.41 195.12Q238.24 196.42 237.28 197.15Q236.32 197.88 234.83 197.88M235.55 196.01Q236.90 196.01 237.66 195.17Q238.43 194.33 238.43 192.84L238.43 189.24Q238.43 187.75 237.66 186.91Q236.90 186.07 235.55 186.07Q234.18 186.07 233.42 186.78Q232.65 187.49 232.65 189.12L232.65 192.96Q232.65 194.57 233.42 195.29Q234.18 196.01 235.55 196.01" fill="white" fill-opacity="0.7"/>
<path d="M248.85 197.88Q246.81 197.88 245.61 196.74Q244.41 195.60 244.41 193.75Q244.41 192.53 244.96 191.62Q245.51 190.70 246.50 190.19Q247.48 189.67 248.75 189.67L252.83 189.67L252.83 188.64Q252.83 186.07 250.02 186.07Q248.78 186.07 248.01 186.53Q247.24 186.98 247.19 187.80L245.03 187.80Q245.15 186.24 246.48 185.22Q247.82 184.20 250.02 184.20Q252.42 184.20 253.71 185.35Q254.99 186.50 254.99 188.57L254.99 197.64L252.86 197.64L252.86 195.24L252.81 195.24Q252.62 196.46 251.58 197.17Q250.55 197.88 248.85 197.88M249.38 196.06Q250.96 196.06 251.90 195.29Q252.83 194.52 252.83 193.20L252.83 191.35L248.99 191.35Q247.94 191.35 247.28 191.99Q246.62 192.62 246.62 193.68Q246.62 194.78 247.35 195.42Q248.08 196.06 249.38 196.06" fill="white" fill-opacity="0.7"/>
<path d="M260.66 197.64L258.64 197.64L258.64 184.44L260.51 184.44L260.51 186.19L260.56 186.19Q260.68 185.30 261.27 184.75Q261.86 184.20 262.77 184.20Q263.63 184.20 264.23 184.70Q264.83 185.21 265.10 186.07L265.12 186.07Q265.29 185.21 265.88 184.70Q266.46 184.20 267.38 184.20Q268.65 184.20 269.40 185.15Q270.16 186.10 270.16 187.61L270.16 197.64L268.14 197.64L268.14 187.58Q268.14 186.79 267.76 186.32Q267.38 185.86 266.70 185.86Q266.06 185.86 265.67 186.31Q265.29 186.77 265.29 187.56L265.29 197.64L263.51 197.64L263.51 187.58Q263.51 186.79 263.13 186.32Q262.74 185.86 262.10 185.86Q261.42 185.86 261.04 186.31Q260.66 186.77 260.66 187.56" fill="white" fill-opacity="0.7"/>
<path d="M277.65 197.88Q275.61 197.88 274.41 196.74Q273.21 195.60 273.21 193.75Q273.21 192.53 273.76 191.62Q274.31 190.70 275.30 190.19Q276.28 189.67 277.55 189.67L281.63 189.67L281.63 188.64Q281.63 186.07 278.82 186.07Q277.58 186.07 276.81 186.53Q276.04 186.98 275.99 187.80L273.83 187.80Q273.95 186.24 275.28 185.22Q276.62 184.20 278.82 184.20Q281.22 184.20 282.51 185.35Q283.79 186.50 283.79 188.57L283.79 197.64L281.66 197.64L281.66 195.24L281.61 195.24Q281.42 196.46 280.38 197.17Q279.35 197.88 277.65 197.88M278.18 196.06Q279.76 196.06 280.70 195.29Q281.63 194.52 281.63 193.20L281.63 191.35L277.79 191.35Q276.74 191.35 276.08 191.99Q275.42 192.62 275.42 193.68Q275.42 194.78 276.15 195.42Q276.88 196.06 278.18 196.06" fill="white" fill-opacity="0.7"/>
<path d="M290.37 197.64L288.21 197.64L288.21 184.44L290.37 184.44L290.37 186.96L290.39 186.96Q290.56 185.64 291.47 184.92Q292.38 184.20 293.90 184.20Q295.89 184.20 297.06 185.42Q298.24 186.65 298.24 188.76L298.24 197.64L296.08 197.64L296.08 189.14Q296.08 187.63 295.32 186.83Q294.57 186.02 293.27 186.02Q291.93 186.02 291.15 186.86Q290.37 187.70 290.37 189.24" fill="white" fill-opacity="0.7"/>
<path d="M328 197.64L317.92 197.64L317.92 180.12L320.08 180.12L320.08 195.67L328 195.67" fill="white" fill-opacity="0.7"/>
<path d="M335.25 197.88Q333.21 197.88 332.01 196.74Q330.81 195.60 330.81 193.75Q330.81 192.53 331.36 191.62Q331.91 190.70 332.90 190.19Q333.88 189.67 335.15 189.67L339.23 189.67L339.23 188.64Q339.23 186.07 336.42 186.07Q335.18 186.07 334.41 186.53Q333.64 186.98 333.59 187.80L331.43 187.80Q331.55 186.24 332.88 185.22Q334.22 184.20 336.42 184.20Q338.82 184.20 340.11 185.35Q341.39 186.50 341.39 188.57L341.39 197.64L339.26 197.64L339.26 195.24L339.21 195.24Q339.02 196.46 337.98 197.17Q336.95 197.88 335.25 197.88M335.78 196.06Q337.36 196.06 338.30 195.29Q339.23 194.52 339.23 193.20L339.23 191.35L335.39 191.35Q334.34 191.35 333.68 191.99Q333.02 192.62 333.02 193.68Q333.02 194.78 333.75 195.42Q334.48 196.06 335.78 196.06" fill="white" fill-opacity="0.7"/>
<path d="M348.88 197.64L346.50 197.64L344.34 184.44L346.22 184.44L347.56 193.75Q347.63 194.28 347.70 194.92Q347.78 195.55 347.80 195.96Q347.85 195.55 347.91 194.92Q347.97 194.28 348.06 193.75L349.72 184.44L351.88 184.44L353.54 193.75Q353.63 194.28 353.72 194.92Q353.80 195.55 353.82 195.96Q353.87 195.55 353.94 194.92Q354.02 194.28 354.09 193.75L355.48 184.44L357.26 184.44L355 197.64L352.62 197.64L351.11 188.52Q351.02 187.85 350.93 187.09Q350.85 186.34 350.80 185.93Q350.78 186.34 350.68 187.09Q350.58 187.85 350.46 188.52" fill="white" fill-opacity="0.7"/>
<path d="M379.79 197.88Q377.39 197.88 376 196.54Q374.61 195.19 374.61 192.84L374.61 184.92Q374.61 182.57 376 181.22Q377.39 179.88 379.79 179.88Q382.14 179.88 383.54 181.24Q384.93 182.59 384.93 184.92L382.77 184.92Q382.77 183.43 381.99 182.63Q381.21 181.82 379.79 181.82Q378.38 181.82 377.57 182.63Q376.77 183.43 376.77 184.92L376.77 192.84Q376.77 194.33 377.57 195.13Q378.38 195.94 379.79 195.94Q381.21 195.94 381.99 195.13Q382.77 194.33 382.77 192.84L384.93 192.84Q384.93 195.17 383.54 196.52Q382.14 197.88 379.79 197.88" fill="white" fill-opacity="0.7"/>
<path d="M394 197.83Q391.62 197.83 390.22 196.44Q388.82 195.05 388.82 192.55L388.82 189.53Q388.82 187.01 390.21 185.63Q391.60 184.25 394 184.25Q396.40 184.25 397.79 185.63Q399.18 187.01 399.18 189.53L399.18 192.55Q399.18 195.05 397.78 196.44Q396.38 197.83 394 197.83M394 195.91Q395.42 195.91 396.22 195.12Q397.02 194.33 397.02 192.79L397.02 189.29Q397.02 187.75 396.22 186.96Q395.42 186.17 394 186.17Q392.61 186.17 391.79 186.96Q390.98 187.75 390.98 189.29L390.98 192.79Q390.98 194.33 391.79 195.12Q392.61 195.91 394 195.91" fill="white" fill-opacity="0.7"/>
<path d="M414.40 197.64L410.32 197.64Q408.57 197.64 407.52 196.62Q406.48 195.60 406.48 193.92L406.48 182.09L401.92 182.09L401.92 180.12L408.64 180.12L408.64 193.92Q408.64 194.74 409.10 195.20Q409.55 195.67 410.32 195.67L414.40 195.67" fill="white" fill-opacity="0.7"/>
<path d="M428.80 197.64L424.72 197.64Q422.97 197.64 421.92 196.62Q420.88 195.60 420.88 193.92L420.88 182.09L416.32 182.09L416.32 180.12L423.04 180.12L423.04 193.92Q423.04 194.74 423.50 195.20Q423.95 195.67 424.72 195.67L428.80 195.67" fill="white" fill-opacity="0.7"/>
<path d="M437.20 197.88Q434.87 197.88 433.44 196.48Q432.02 195.07 432.02 192.60L432.02 189.48Q432.02 187.01 433.44 185.60Q434.87 184.20 437.20 184.20Q438.76 184.20 439.92 184.82Q441.09 185.45 441.74 186.58Q442.38 187.70 442.38 189.24L442.38 191.59L434.13 191.59L434.13 192.84Q434.13 194.30 434.97 195.16Q435.81 196.01 437.20 196.01Q438.40 196.01 439.18 195.54Q439.96 195.07 440.13 194.28L442.29 194.28Q442.07 195.94 440.68 196.91Q439.29 197.88 437.20 197.88M434.13 189.24L434.13 189.91L440.27 189.91L440.27 189.24Q440.27 187.68 439.47 186.83Q438.66 185.98 437.20 185.98Q435.74 185.98 434.93 186.83Q434.13 187.68 434.13 189.24" fill="white" fill-opacity="0.7"/>
<path d="M451.96 201.96L448.26 201.96L448.26 199.99L451.98 199.99Q453.11 199.99 453.76 199.36Q454.41 198.72 454.41 197.64L454.41 196.44L454.46 194.28L454.38 194.28Q454.19 195.46 453.26 196.09Q452.32 196.73 450.90 196.73Q448.86 196.73 447.69 195.43Q446.51 194.14 446.51 191.88L446.51 189.10Q446.51 186.84 447.69 185.52Q448.86 184.20 450.90 184.20Q452.32 184.20 453.26 184.87Q454.19 185.54 454.38 186.72L454.43 186.72L454.43 184.44L456.57 184.44L456.57 197.64Q456.57 199.63 455.33 200.80Q454.10 201.96 451.96 201.96M451.55 194.93Q452.90 194.93 453.66 194.09Q454.43 193.25 454.43 191.76L454.43 189.24Q454.43 187.75 453.66 186.91Q452.90 186.07 451.55 186.07Q450.18 186.07 449.43 186.86Q448.67 187.66 448.67 189L448.67 192Q448.67 193.34 449.43 194.14Q450.18 194.93 451.55 194.93" fill="white" fill-opacity="0.7"/>
<path d="M466 197.88Q463.67 197.88 462.24 196.48Q460.82 195.07 460.82 192.60L460.82 189.48Q460.82 187.01 462.24 185.60Q463.67 184.20 466 184.20Q467.56 184.20 468.72 184.82Q469.89 185.45 470.54 186.58Q471.18 187.70 471.18 189.24L471.18 191.59L462.93 191.59L462.93 192.84Q462.93 194.30 463.77 195.16Q464.61 196.01 466 196.01Q467.20 196.01 467.98 195.54Q468.76 195.07 468.93 194.28L471.09 194.28Q470.87 195.94 469.48 196.91Q468.09 197.88 466 197.88M462.93 189.24L462.93 189.91L469.07 189.91L469.07 189.24Q469.07 187.68 468.27 186.83Q467.46 185.98 466 185.98Q464.54 185.98 463.73 186.83Q462.93 187.68 462.93 189.24" fill="white" fill-opacity="0.7"/>
<path d="M495.88 197.64L493.72 197.64L493.72 182.09L488.92 182.09L488.92 180.12L500.68 180.12L500.68 182.09L495.88 182.09" fill="white" fill-opacity="0.7"/>
<path d="M506.85 197.64L504.69 197.64L504.69 184.44L506.85 184.44L506.85 186.96L506.90 186.96Q507.06 185.69 507.98 184.94Q508.89 184.20 510.42 184.20Q512.49 184.20 513.60 185.44Q514.72 186.67 514.72 188.95L514.72 190.08L512.56 190.08L512.56 188.95Q512.56 186.07 509.75 186.07Q508.34 186.07 507.59 186.89Q506.85 187.70 506.85 189.24" fill="white" fill-opacity="0.7"/>
<path d="M522.45 197.88Q520.41 197.88 519.21 196.74Q518.01 195.60 518.01 193.75Q518.01 192.53 518.56 191.62Q519.11 190.70 520.10 190.19Q521.08 189.67 522.35 189.67L526.43 189.67L526.43 188.64Q526.43 186.07 523.62 186.07Q522.38 186.07 521.61 186.53Q520.84 186.98 520.79 187.80L518.63 187.80Q518.75 186.24 520.08 185.22Q521.42 184.20 523.62 184.20Q526.02 184.20 527.31 185.35Q528.59 186.50 528.59 188.57L528.59 197.64L526.46 197.64L526.46 195.24L526.41 195.24Q526.22 196.46 525.18 197.17Q524.15 197.88 522.45 197.88M522.98 196.06Q524.56 196.06 525.50 195.29Q526.43 194.52 526.43 193.20L526.43 191.35L522.59 191.35Q521.54 191.35 520.88 191.99Q520.22 192.62 520.22 193.68Q520.22 194.78 520.95 195.42Q521.68 196.06 522.98 196.06" fill="white" fill-opacity="0.7"/>
<path d="M535.17 197.64L533.01 197.64L533.01 184.44L535.17 184.44L535.17 186.96L535.19 186.96Q535.36 185.64 536.27 184.92Q537.18 184.20 538.70 184.20Q540.69 184.20 541.86 185.42Q543.04 186.65 543.04 188.76L543.04 197.64L540.88 197.64L540.88 189.14Q540.88 187.63 540.12 186.83Q539.37 186.02 538.07 186.02Q536.73 186.02 535.95 186.86Q535.17 187.70 535.17 189.24" fill="white" fill-opacity="0.7"/>
<path d="M552.93 197.83L551.87 197.83Q549.66 197.83 548.45 196.84Q547.24 195.84 547.24 194.02L549.40 194.02Q549.40 194.93 550.05 195.44Q550.70 195.96 551.87 195.96L552.93 195.96Q554.13 195.96 554.79 195.43Q555.45 194.90 555.45 193.94Q555.45 192.24 553.89 192.02L550.24 191.50Q548.90 191.30 548.15 190.38Q547.41 189.46 547.41 187.94Q547.41 186.22 548.60 185.23Q549.78 184.25 551.87 184.25L552.93 184.25Q554.85 184.25 556.06 185.20Q557.27 186.14 557.37 187.68L555.18 187.68Q555.14 186.98 554.52 186.53Q553.91 186.07 552.93 186.07L551.87 186.07Q550.77 186.07 550.14 186.58Q549.52 187.08 549.52 187.94Q549.52 189.34 550.79 189.53L554.20 190.01Q557.56 190.49 557.56 193.94Q557.56 195.79 556.35 196.81Q555.14 197.83 552.93 197.83" fill="white" fill-opacity="0.7"/>
<path d="M566.92 197.64L564.76 197.64L564.76 188.21L560.92 188.21L560.92 186.24L564.76 186.24L564.76 183.48Q564.76 181.92 565.74 181.02Q566.73 180.12 568.46 180.12L572.32 180.12L572.32 182.09L568.46 182.09Q566.92 182.09 566.92 183.48L566.92 186.24L572.32 186.24L572.32 188.21L566.92 188.21" fill="white" fill-opacity="0.7"/>
<path d="M581.20 197.88Q578.87 197.88 577.44 196.48Q576.02 195.07 576.02 192.60L576.02 189.48Q576.02 187.01 577.44 185.60Q578.87 184.20 581.20 184.20Q582.76 184.20 583.92 184.82Q585.09 185.45 585.74 186.58Q586.38 187.70 586.38 189.24L586.38 191.59L578.13 191.59L578.13 192.84Q578.13 194.30 578.97 195.16Q579.81 196.01 581.20 196.01Q582.40 196.01 583.18 195.54Q583.96 195.07 584.13 194.28L586.29 194.28Q586.07 195.94 584.68 196.91Q583.29 197.88 581.20 197.88M578.13 189.24L578.13 189.91L584.27 189.91L584.27 189.24Q584.27 187.68 583.47 186.83Q582.66 185.98 581.20 185.98Q579.74 185.98 578.93 186.83Q578.13 187.68 578.13 189.24" fill="white" fill-opacity="0.7"/>
<path d="M593.25 197.64L591.09 197.64L591.09 184.44L593.25 184.44L593.25 186.96L593.30 186.96Q593.46 185.69 594.38 184.94Q595.29 184.20 596.82 184.20Q598.89 184.20 600 185.44Q601.12 186.67 601.12 188.95L601.12 190.08L598.96 190.08L598.96 188.95Q598.96 186.07 596.15 186.07Q594.74 186.07 593.99 186.89Q593.25 187.70 593.25 189.24" fill="white" fill-opacity="0.7"/>
<path d="M624.59 197.88Q622.19 197.88 620.80 196.54Q619.41 195.19 619.41 192.84L619.41 184.92Q619.41 182.57 620.80 181.22Q622.19 179.88 624.59 179.88Q626.94 179.88 628.34 181.24Q629.73 182.59 629.73 184.92L627.57 184.92Q627.57 183.43 626.79 182.63Q626.01 181.82 624.59 181.82Q623.18 181.82 622.37 182.63Q621.57 183.43 621.57 184.92L621.57 192.84Q621.57 194.33 622.37 195.13Q623.18 195.94 624.59 195.94Q626.01 195.94 626.79 195.13Q627.57 194.33 627.57 192.84L629.73 192.84Q629.73 195.17 628.34 196.52Q626.94 197.88 624.59 197.88" fill="white" fill-opacity="0.7"/>
<path d="M638.80 197.88Q636.47 197.88 635.04 196.48Q633.62 195.07 633.62 192.60L633.62 189.48Q633.62 187.01 635.04 185.60Q636.47 184.20 638.80 184.20Q640.36 184.20 641.52 184.82Q642.69 185.45 643.34 186.58Q643.98 187.70 643.98 189.24L643.98 191.59L635.73 191.59L635.73 192.84Q635.73 194.30 636.57 195.16Q637.41 196.01 638.80 196.01Q640 196.01 640.78 195.54Q641.56 195.07 641.73 194.28L643.89 194.28Q643.67 195.94 642.28 196.91Q640.89 197.88 638.80 197.88M635.73 189.24L635.73 189.91L641.87 189.91L641.87 189.24Q641.87 187.68 641.07 186.83Q640.26 185.98 638.80 185.98Q637.34 185.98 636.53 186.83Q635.73 187.68 635.73 189.24" fill="white" fill-opacity="0.7"/>
<path d="M650.85 197.64L648.69 197.64L648.69 184.44L650.85 184.44L650.85 186.96L650.90 186.96Q651.06 185.69 651.98 184.94Q652.89 184.20 654.42 184.20Q656.49 184.20 657.60 185.44Q658.72 186.67 658.72 188.95L658.72 190.08L656.56 190.08L656.56 188.95Q656.56 186.07 653.75 186.07Q652.34 186.07 651.59 186.89Q650.85 187.70 650.85 189.24" fill="white" fill-opacity="0.7"/>
<path d="M672.76 197.64L668.92 197.64Q667.29 197.64 666.30 196.69Q665.32 195.74 665.32 194.16L665.32 186.41L661.53 186.41L661.53 184.44L665.32 184.44L665.32 180.72L667.48 180.72L667.48 184.44L672.88 184.44L672.88 186.41L667.48 186.41L667.48 194.16Q667.48 194.83 667.88 195.25Q668.27 195.67 668.92 195.67L672.76 195.67" fill="white" fill-opacity="0.7"/>
<path d="M688.12 197.64L676.84 197.64L676.84 195.67L681.52 195.67L681.52 186.41L677.32 186.41L677.32 184.44L683.68 184.44L683.68 195.67L688.12 195.67L688.12 197.64M682.36 182.06Q681.57 182.06 681.11 181.66Q680.66 181.25 680.66 180.55Q680.66 179.83 681.11 179.41Q681.57 178.99 682.36 178.99Q683.15 178.99 683.61 179.41Q684.06 179.83 684.06 180.55Q684.06 181.25 683.61 181.66Q683.15 182.06 682.36 182.06" fill="white" fill-opacity="0.7"/>
<path d="M696.52 197.64L694.36 197.64L694.36 188.21L690.52 188.21L690.52 186.24L694.36 186.24L694.36 183.48Q694.36 181.92 695.34 181.02Q696.33 180.12 698.06 180.12L701.92 180.12L701.92 182.09L698.06 182.09Q696.52 182.09 696.52 183.48L696.52 186.24L701.92 186.24L701.92 188.21L696.52 188.21" fill="white" fill-opacity="0.7"/>
<path d="M716.92 197.64L705.64 197.64L705.64 195.67L710.32 195.67L710.32 186.41L706.12 186.41L706.12 184.44L712.48 184.44L712.48 195.67L716.92 195.67L716.92 197.64M711.16 182.06Q710.37 182.06 709.91 181.66Q709.46 181.25 709.46 180.55Q709.46 179.83 709.91 179.41Q710.37 178.99 711.16 178.99Q711.95 178.99 712.41 179.41Q712.86 179.83 712.86 180.55Q712.86 181.25 712.41 181.66Q711.95 182.06 711.16 182.06" fill="white" fill-opacity="0.7"/>
<path d="M725.39 197.88Q722.99 197.88 721.55 196.54Q720.11 195.19 720.11 192.84L720.11 189.24Q720.11 186.89 721.55 185.54Q722.99 184.20 725.39 184.20Q727.67 184.20 729.08 185.42Q730.48 186.65 730.55 188.76L728.39 188.76Q728.32 187.49 727.53 186.80Q726.74 186.12 725.39 186.12Q723.98 186.12 723.12 186.92Q722.27 187.73 722.27 189.22L722.27 192.84Q722.27 194.33 723.12 195.14Q723.98 195.96 725.39 195.96Q726.74 195.96 727.53 195.26Q728.32 194.57 728.39 193.32L730.55 193.32Q730.48 195.43 729.08 196.66Q727.67 197.88 725.39 197.88" fill="white" fill-opacity="0.7"/>
<path d="M738.45 197.88Q736.41 197.88 735.21 196.74Q734.01 195.60 734.01 193.75Q734.01 192.53 734.56 191.62Q735.11 190.70 736.10 190.19Q737.08 189.67 738.35 189.67L742.43 189.67L742.43 188.64Q742.43 186.07 739.62 186.07Q738.38 186.07 737.61 186.53Q736.84 186.98 736.79 187.80L734.63 187.80Q734.75 186.24 736.08 185.22Q737.42 184.20 739.62 184.20Q742.02 184.20 743.31 185.35Q744.59 186.50 744.59 188.57L744.59 197.64L742.46 197.64L742.46 195.24L742.41 195.24Q742.22 196.46 741.18 197.17Q740.15 197.88 738.45 197.88M738.98 196.06Q740.56 196.06 741.50 195.29Q742.43 194.52 742.43 193.20L742.43 191.35L738.59 191.35Q737.54 191.35 736.88 191.99Q736.22 192.62 736.22 193.68Q736.22 194.78 736.95 195.42Q737.68 196.06 738.98 196.06" fill="white" fill-opacity="0.7"/>
<path d="M759.16 197.64L755.32 197.64Q753.69 197.64 752.70 196.69Q751.72 195.74 751.72 194.16L751.72 186.41L747.93 186.41L747.93 184.44L751.72 184.44L751.72 180.72L753.88 180.72L753.88 184.44L759.28 184.44L759.28 186.41L753.88 186.41L753.88 194.16Q753.88 194.83 754.28 195.25Q754.67 195.67 755.32 195.67L759.16 195.67" fill="white" fill-opacity="0.7"/>
<path d="M768.40 197.88Q766.07 197.88 764.64 196.48Q763.22 195.07 763.22 192.60L763.22 189.48Q763.22 187.01 764.64 185.60Q766.07 184.20 768.40 184.20Q769.96 184.20 771.12 184.82Q772.29 185.45 772.94 186.58Q773.58 187.70 773.58 189.24L773.58 191.59L765.33 191.59L765.33 192.84Q765.33 194.30 766.17 195.16Q767.01 196.01 768.40 196.01Q769.60 196.01 770.38 195.54Q771.16 195.07 771.33 194.28L773.49 194.28Q773.27 195.94 771.88 196.91Q770.49 197.88 768.40 197.88M765.33 189.24L765.33 189.91L771.47 189.91L771.47 189.24Q771.47 187.68 770.67 186.83Q769.86 185.98 768.40 185.98Q766.94 185.98 766.13 186.83Q765.33 187.68 765.33 189.24" fill="white" fill-opacity="0.7"/>
<path d="M798.62 197.64L795.78 197.64L791.30 184.44L793.62 184.44L796.50 193.32Q796.77 194.11 796.96 194.84Q797.15 195.58 797.25 195.98Q797.37 195.58 797.54 194.84Q797.70 194.11 797.94 193.32L800.82 184.44L803.10 184.44" fill="white" fill-opacity="0.7"/>
<path d="M817.72 197.64L806.44 197.64L806.44 195.67L811.12 195.67L811.12 186.41L806.92 186.41L806.92 184.44L813.28 184.44L813.28 195.67L817.72 195.67L817.72 197.64M811.96 182.06Q811.17 182.06 810.71 181.66Q810.26 181.25 810.26 180.55Q810.26 179.83 810.71 179.41Q811.17 178.99 811.96 178.99Q812.75 178.99 813.21 179.41Q813.66 179.83 813.66 180.55Q813.66 181.25 813.21 181.66Q812.75 182.06 811.96 182.06" fill="white" fill-opacity="0.7"/>
<path d="M824.85 197.88Q822.81 197.88 821.61 196.74Q820.41 195.60 820.41 193.75Q820.41 192.53 820.96 191.62Q821.51 190.70 822.50 190.19Q823.48 189.67 824.75 189.67L828.83 189.67L828.83 188.64Q828.83 186.07 826.02 186.07Q824.78 186.07 824.01 186.53Q823.24 186.98 823.19 187.80L821.03 187.80Q821.15 186.24 822.48 185.22Q823.82 184.20 826.02 184.20Q828.42 184.20 829.71 185.35Q830.99 186.50 830.99 188.57L830.99 197.64L828.86 197.64L828.86 195.24L828.81 195.24Q828.62 196.46 827.58 197.17Q826.55 197.88 824.85 197.88M825.38 196.06Q826.96 196.06 827.90 195.29Q828.83 194.52 828.83 193.20L828.83 191.35L824.99 191.35Q823.94 191.35 823.28 191.99Q822.62 192.62 822.62 193.68Q822.62 194.78 823.35 195.42Q824.08 196.06 825.38 196.06" fill="white" fill-opacity="0.7"/>
<path d="M854.34 197.64L849.81 197.64L849.81 180.12L854.34 180.12Q856.05 180.12 857.28 180.77Q858.52 181.42 859.20 182.59Q859.89 183.77 859.89 185.38L859.89 192.36Q859.89 193.97 859.20 195.16Q858.52 196.34 857.28 196.99Q856.05 197.64 854.34 197.64M851.97 182.04L851.97 195.72L854.34 195.72Q855.93 195.72 856.83 194.83Q857.73 193.94 857.73 192.36L857.73 185.38Q857.73 183.82 856.83 182.93Q855.93 182.04 854.34 182.04" fill="white" fill-opacity="0.7"/>
<path d="M875.32 197.64L864.04 197.64L864.04 195.67L868.72 195.67L868.72 186.41L864.52 186.41L864.52 184.44L870.88 184.44L870.88 195.67L875.32 195.67L875.32 197.64M869.56 182.06Q868.77 182.06 868.31 181.66Q867.86 181.25 867.86 180.55Q867.86 179.83 868.31 179.41Q868.77 178.99 869.56 178.99Q870.35 178.99 870.81 179.41Q871.26 179.83 871.26 180.55Q871.26 181.25 870.81 181.66Q870.35 182.06 869.56 182.06" fill="white" fill-opacity="0.7"/>
<path d="M883.96 201.96L880.26 201.96L880.26 199.99L883.98 199.99Q885.11 199.99 885.76 199.36Q886.41 198.72 886.41 197.64L886.41 196.44L886.46 194.28L886.38 194.28Q886.19 195.46 885.26 196.09Q884.32 196.73 882.90 196.73Q880.86 196.73 879.69 195.43Q878.51 194.14 878.51 191.88L878.51 189.10Q878.51 186.84 879.69 185.52Q880.86 184.20 882.90 184.20Q884.32 184.20 885.26 184.87Q886.19 185.54 886.38 186.72L886.43 186.72L886.43 184.44L888.57 184.44L888.57 197.64Q888.57 199.63 887.33 200.80Q886.10 201.96 883.96 201.96M883.55 194.93Q884.90 194.93 885.66 194.09Q886.43 193.25 886.43 191.76L886.43 189.24Q886.43 187.75 885.66 186.91Q884.90 186.07 883.55 186.07Q882.18 186.07 881.43 186.86Q880.67 187.66 880.67 189L880.67 192Q880.67 193.34 881.43 194.14Q882.18 194.93 883.55 194.93" fill="white" fill-opacity="0.7"/>
<path d="M904.12 197.64L892.84 197.64L892.84 195.67L897.52 195.67L897.52 186.41L893.32 186.41L893.32 184.44L899.68 184.44L899.68 195.67L904.12 195.67L904.12 197.64M898.36 182.06Q897.57 182.06 897.11 181.66Q896.66 181.25 896.66 180.55Q896.66 179.83 897.11 179.41Q897.57 178.99 898.36 178.99Q899.15 178.99 899.61 179.41Q900.06 179.83 900.06 180.55Q900.06 181.25 899.61 181.66Q899.15 182.06 898.36 182.06" fill="white" fill-opacity="0.7"/>
<path d="M918.40 197.64L908.32 197.64L908.32 180.12L910.48 180.12L910.48 195.67L918.40 195.67" fill="white" fill-opacity="0.7"/>
<path d="M926.80 197.83Q924.42 197.83 923.02 196.44Q921.62 195.05 921.62 192.55L921.62 189.53Q921.62 187.01 923.01 185.63Q924.40 184.25 926.80 184.25Q929.20 184.25 930.59 185.63Q931.98 187.01 931.98 189.53L931.98 192.55Q931.98 195.05 930.58 196.44Q929.18 197.83 926.80 197.83M926.80 195.91Q928.22 195.91 929.02 195.12Q929.82 194.33 929.82 192.79L929.82 189.29Q929.82 187.75 929.02 186.96Q928.22 186.17 926.80 186.17Q925.41 186.17 924.59 186.96Q923.78 187.75 923.78 189.29L923.78 192.79Q923.78 194.33 924.59 195.12Q925.41 195.91 926.80 195.91" fill="white" fill-opacity="0.7"/>
<path d="M941.39 197.88Q938.99 197.88 937.55 196.54Q936.11 195.19 936.11 192.84L936.11 189.24Q936.11 186.89 937.55 185.54Q938.99 184.20 941.39 184.20Q943.67 184.20 945.08 185.42Q946.48 186.65 946.55 188.76L944.39 188.76Q944.32 187.49 943.53 186.80Q942.74 186.12 941.39 186.12Q939.98 186.12 939.12 186.92Q938.27 187.73 938.27 189.22L938.27 192.84Q938.27 194.33 939.12 195.14Q939.98 195.96 941.39 195.96Q942.74 195.96 943.53 195.26Q944.32 194.57 944.39 193.32L946.55 193.32Q946.48 195.43 945.08 196.66Q943.67 197.88 941.39 197.88" fill="white" fill-opacity="0.7"/>
<path d="M952.89 197.64L950.73 197.64L950.73 180.12L952.89 180.12L952.89 189.89L955.41 189.89L959.10 184.44L961.58 184.44L957.33 190.73L961.82 197.64L959.30 197.64L955.46 191.76L952.89 191.76" fill="white" fill-opacity="0.7"/>
<path d="M970 197.88Q967.67 197.88 966.24 196.48Q964.82 195.07 964.82 192.60L964.82 189.48Q964.82 187.01 966.24 185.60Q967.67 184.20 970 184.20Q971.56 184.20 972.72 184.82Q973.89 185.45 974.54 186.58Q975.18 187.70 975.18 189.24L975.18 191.59L966.93 191.59L966.93 192.84Q966.93 194.30 967.77 195.16Q968.61 196.01 970 196.01Q971.20 196.01 971.98 195.54Q972.76 195.07 972.93 194.28L975.09 194.28Q974.87 195.94 973.48 196.91Q972.09 197.88 970 197.88M966.93 189.24L966.93 189.91L973.07 189.91L973.07 189.24Q973.07 187.68 972.27 186.83Q971.46 185.98 970 185.98Q968.54 185.98 967.73 186.83Q966.93 187.68 966.93 189.24" fill="white" fill-opacity="0.7"/>
<path d="M982.05 197.64L979.89 197.64L979.89 184.44L982.05 184.44L982.05 186.96L982.10 186.96Q982.26 185.69 983.18 184.94Q984.09 184.20 985.62 184.20Q987.69 184.20 988.80 185.44Q989.92 186.67 989.92 188.95L989.92 190.08L987.76 190.08L987.76 188.95Q987.76 186.07 984.95 186.07Q983.54 186.07 982.79 186.89Q982.05 187.70 982.05 189.24" fill="white" fill-opacity="0.7"/>
<path d="M998.80 197.88Q997.91 197.88 997.37 197.35Q996.83 196.82 996.83 195.98Q996.83 195.10 997.37 194.54Q997.91 193.99 998.80 193.99Q999.69 193.99 1000.23 194.54Q1000.77 195.10 1000.77 195.98Q1000.77 196.82 1000.23 197.35Q999.69 197.88 998.80 197.88" fill="white" fill-opacity="0.7"/>
<path d="M76.11 136.06L66.42 136.06L84.56 65.98L97.14 65.98L115.18 136.06L105.49 136.06L101.07 117.82L80.53 117.82L76.11 136.06M87.54 88.92L82.45 109.95L99.15 109.95L94.16 89.02Q92.72 83.26 91.86 79.23Q90.99 75.20 90.80 73.76Q90.61 75.20 89.74 79.23Q88.88 83.26 87.54 88.92M137.55 136.06L128.05 136.06L128.05 65.98L150.80 65.98Q157.52 65.98 162.42 68.57Q167.31 71.16 170 75.82Q172.69 80.48 172.69 86.91Q172.69 93.24 170 97.90Q167.31 102.56 162.37 105.15Q157.42 107.74 150.80 107.74L137.55 107.74L137.55 136.06M137.55 74.43L137.55 99.29L150.80 99.29Q156.37 99.29 159.63 95.88Q162.90 92.48 162.90 86.91Q162.90 81.24 159.63 77.84Q156.37 74.43 150.80 74.43L137.55 74.43M225.10 136.06L186.90 136.06L186.90 127.42L201.20 127.42L201.20 74.62L186.90 74.62L186.90 65.98L225.10 65.98L225.10 74.62L210.80 74.62L210.80 127.42L225.10 127.42L225.10 136.06M263.98 137.02Q253.62 137.02 247.47 131.60Q241.33 126.17 241.33 116.67L250.83 116.67Q250.83 122.24 254.38 125.40Q257.94 128.57 263.98 128.57Q269.74 128.57 273.15 125.36Q276.56 122.14 276.56 116.76Q276.56 112.73 274.35 109.71Q272.14 106.68 268.11 105.63L257.74 102.84Q250.93 100.92 246.94 95.88Q242.96 90.84 242.96 83.93Q242.96 78.27 245.50 74Q248.05 69.72 252.66 67.37Q257.26 65.02 263.31 65.02Q269.46 65.02 274.11 67.37Q278.77 69.72 281.36 73.95Q283.95 78.17 283.95 83.74L274.54 83.74Q274.54 79.13 271.42 76.25Q268.30 73.37 263.31 73.37Q258.32 73.37 255.30 76.25Q252.27 79.13 252.27 83.74Q252.27 87.48 254.29 90.03Q256.30 92.57 259.95 93.63L270.61 96.51Q277.81 98.43 281.84 103.85Q285.87 109.28 285.87 116.76Q285.87 122.91 283.18 127.47Q280.50 132.03 275.55 134.52Q270.61 137.02 263.98 137.02M342.51 136.06L301.71 136.06L301.71 65.98L342.51 65.98L342.51 74.52L311.12 74.52L311.12 95.36L339.15 95.36L339.15 103.61L311.12 103.61L311.12 127.52L342.51 127.52L342.51 136.06M383.60 136.06L374.10 136.06L374.10 74.62L355.09 74.62L355.09 65.98L402.51 65.98L402.51 74.62L383.60 74.62L383.60 136.06M436.40 137.02Q426.51 137.02 421.18 131.55Q415.86 126.08 415.86 116.67L415.86 65.98L425.36 65.98L425.36 116.67Q425.36 122.24 428.10 125.40Q430.83 128.57 436.40 128.57Q441.87 128.57 444.70 125.40Q447.54 122.24 447.54 116.67L447.54 65.98L457.04 65.98L457.04 116.67Q457.04 126.17 451.71 131.60Q446.38 137.02 436.40 137.02M551.98 137.02Q542.29 137.02 536.58 131.60Q530.86 126.17 530.86 116.67L530.86 85.28Q530.86 75.87 536.58 70.44Q542.29 65.02 551.98 65.02Q561.58 65.02 567.30 70.49Q573.01 75.96 573.01 85.28L563.50 85.28Q563.50 79.61 560.43 76.54Q557.36 73.47 551.98 73.47Q546.51 73.47 543.44 76.54Q540.37 79.61 540.37 85.28L540.37 116.67Q540.37 122.43 543.44 125.50Q546.51 128.57 551.98 128.57Q557.36 128.57 560.43 125.50Q563.50 122.43 563.50 116.67L563.50 107.55L549.87 107.55L549.87 99.10L573.01 99.10L573.01 116.67Q573.01 126.08 567.30 131.55Q561.58 137.02 551.98 137.02M609.20 137.02Q599.60 137.02 594.03 131.45Q588.46 125.88 588.46 115.71L588.46 86.24Q588.46 76.16 594.03 70.59Q599.60 65.02 609.20 65.02Q618.80 65.02 624.37 70.54Q629.94 76.06 629.94 86.24L629.94 115.71Q629.94 125.88 624.37 131.45Q618.80 137.02 609.20 137.02M609.20 128.57Q614.58 128.57 617.50 125.50Q620.43 122.43 620.43 116.67L620.43 85.28Q620.43 79.61 617.55 76.54Q614.67 73.47 609.20 73.47Q603.73 73.47 600.85 76.54Q597.97 79.61 597.97 85.28L597.97 116.67Q597.97 122.43 600.90 125.50Q603.82 128.57 609.20 128.57M673.14 136.06L660.37 136.06L642.42 65.98L652.21 65.98L663.82 113.21Q664.98 117.72 665.79 121.90Q666.61 126.08 666.99 128.28Q667.28 126.08 668.19 121.85Q669.10 117.63 670.16 113.12L681.39 65.98L691.18 65.98L673.14 136.06M806.19 136.06L765.49 136.06L765.49 65.98L774.99 65.98L774.99 127.42L806.19 127.42L806.19 136.06M824.91 136.06L815.22 136.06L833.36 65.98L845.94 65.98L863.98 136.06L854.29 136.06L849.87 117.82L829.33 117.82L824.91 136.06M836.34 88.92L831.25 109.95L847.95 109.95L842.96 89.02Q841.52 83.26 840.66 79.23Q839.79 75.20 839.60 73.76Q839.41 75.20 838.54 79.23Q837.68 83.26 836.34 88.92M889.71 136.06L878.29 136.06L870.22 65.98L878.67 65.98L883.86 117.05Q884.14 120.12 884.38 123.63Q884.62 127.13 884.72 129.34Q884.91 127.13 885.20 123.63Q885.49 120.12 885.97 117.05L892.69 65.98L902.19 65.98L908.43 117.05Q908.72 120.12 909.10 123.63Q909.49 127.13 909.78 129.34Q909.87 127.13 910.16 123.63Q910.45 120.12 910.74 117.05L916.02 65.98L924.27 65.98L915.92 136.06L904.40 136.06L898.35 84.22Q897.97 81.05 897.73 77.74Q897.49 74.43 897.39 72.41Q897.10 74.43 896.91 77.74Q896.72 81.05 896.34 84.22L889.71 136.06M955.57 137.02Q945.87 137.02 940.16 131.60Q934.45 126.17 934.45 116.67L934.45 85.28Q934.45 75.87 940.16 70.44Q945.87 65.02 955.57 65.02Q965.17 65.02 970.88 70.49Q976.59 75.96 976.59 85.28L967.09 85.28Q967.09 79.61 964.02 76.54Q960.94 73.47 955.57 73.47Q950.10 73.47 947.02 76.54Q943.95 79.61 943.95 85.28L943.95 116.67Q943.95 122.43 947.02 125.50Q950.10 128.57 955.57 128.57Q960.94 128.57 964.02 125.50Q967.09 122.43 967.09 116.67L976.59 116.67Q976.59 126.08 970.88 131.55Q965.17 137.02 955.57 137.02M1012.40 137.02Q1002.80 137.02 997.23 131.45Q991.66 125.88 991.66 115.71L991.66 86.24Q991.66 76.16 997.23 70.59Q1002.80 65.02 1012.40 65.02QNaN 65.02 1027.57 70.54Q1033.14 76.06 1033.14 86.24L1033.14 115.71Q1033.14 125.88 1027.57 131.45QNaN 137.02 1012.40 137.02M1012.40 128.57Q1017.78 128.57 1020.70 125.50Q1023.63 122.43 1023.63 116.67L1023.63 85.28Q1023.63 79.61 1020.75 76.54Q1017.87 73.47 1012.40 73.47Q1006.93 73.47 1004.05 76.54Q1001.17 79.61 1001.17 85.28L1001.17 116.67Q1001.17 122.43 1004.10 125.50Q1007.02 128.57 1012.40 128.57M1094.19 136.06L1053.49 136.06L1053.49 65.98L1062.99 65.98L1062.99 127.42L1094.19 127.42L1094.19 136.06M1151.79 136.06L1111.09 136.06L1111.09 65.98L1120.59 65.98L1120.59 127.42L1151.79 127.42L1151.79 136.06M1206.51 136.06L1165.71 136.06L1165.71 65.98L1206.51 65.98L1206.51 74.52L1175.12 74.52L1175.12 95.36L1203.15 95.36L1203.15 103.61L1175.12 103.61L1175.12 127.52L1206.51 127.52L1206.51 136.06M1243.18 137.02Q1233.49 137.02 1227.78 131.60Q1222.06 126.17 1222.06 116.67L1222.06 85.28Q1222.06 75.87 1227.78 70.44Q1233.49 65.02 1243.18 65.02Q1252.78 65.02 1258.50 70.49Q1264.21 75.96 1264.21 85.28L1254.70 85.28Q1254.70 79.61 1251.63 76.54Q1248.56 73.47 1243.18 73.47Q1237.71 73.47 1234.64 76.54Q1231.57 79.61 1231.57 85.28L1231.57 116.67Q1231.57 122.43 1234.64 125.50Q1237.71 128.57 1243.18 128.57Q1248.56 128.57 1251.63 125.50Q1254.70 122.43 1254.70 116.67L1254.70 107.55L1241.07 107.55L1241.07 99.10L1264.21 99.10L1264.21 116.67Q1264.21 126.08 1258.50 131.55Q1252.78 137.02 1243.18 137.02M1321.71 136.06L1280.91 136.06L1280.91 65.98L1321.71 65.98L1321.71 74.52L1290.32 74.52L1290.32 95.36L1318.35 95.36L1318.35 103.61L1290.32 103.61L1290.32 127.52L1321.71 127.52L1321.71 136.06M1343.31 136.06L1333.62 136.06L1351.76 65.98L1364.34 65.98L1382.38 136.06L1372.69 136.06L1368.27 117.82L1347.73 117.82L1343.31 136.06M1354.74 88.92L1349.65 109.95L1366.35 109.95L1361.36 89.02Q1359.92 83.26 1359.06 79.23Q1358.19 75.20 1358 73.76Q1357.81 75.20 1356.94 79.23Q1356.08 83.26 1354.74 88.92M1403.98 136.06L1395.06 136.06L1395.06 65.98L1407.34 65.98L1428.27 125.12Q1427.98 122.62 1427.74 118.92Q1427.50 115.23 1427.36 111.24Q1427.22 107.26 1427.22 103.71L1427.22 65.98L1436.24 65.98L1436.24 136.06L1423.86 136.06L1403.12 76.92Q1403.31 79.42 1403.50 83.02Q1403.70 86.62 1403.84 90.56Q1403.98 94.49 1403.98 97.95L1403.98 136.06M1471.66 136.06L1452.85 136.06L1452.85 65.98L1471.66 65.98Q1478.48 65.98 1483.52 68.62Q1488.56 71.26 1491.34 76.01Q1494.13 80.76 1494.13 87.20L1494.13 114.75Q1494.13 121.18 1491.34 125.98Q1488.56 130.78 1483.52 133.42Q1478.48 136.06 1471.66 136.06M1462.35 74.43L1462.35 127.61L1471.66 127.61Q1477.71 127.61 1481.17 124.16Q1484.62 120.70 1484.62 114.75L1484.62 87.20Q1484.62 81.24 1481.17 77.84Q1477.71 74.43 1471.66 74.43L1462.35 74.43M1516.11 136.06L1506.42 136.06L1524.56 65.98L1537.14 65.98L1555.18 136.06L1545.49 136.06L1541.07 117.82L1520.53 117.82L1516.11 136.06M1527.54 88.92L1522.45 109.95L1539.15 109.95L1534.16 89.02Q1532.72 83.26 1531.86 79.23Q1530.99 75.20 1530.80 73.76Q1530.61 75.20 1529.74 79.23Q1528.88 83.26 1527.54 88.92M1575.15 136.06L1566.13 136.06L1566.13 65.98L1579.57 65.98L1588.21 96.22L1597.23 65.98L1610.77 65.98L1610.77 136.06L1601.65 136.06L1601.65 103.90Q1601.65 98.81 1601.84 92.62Q1602.03 86.43 1602.37 80.24Q1602.70 74.04 1603.09 69.05L1592.14 104.96L1584.08 104.96L1573.52 69.92Q1574.38 76.92 1574.77 85.52Q1575.15 94.11 1575.15 103.90L1575.15 136.06M1631.31 136.06L1621.62 136.06L1639.76 65.98L1652.34 65.98L1670.38 136.06L1660.69 136.06L1656.27 117.82L1635.73 117.82L1631.31 136.06M1642.74 88.92L1637.65 109.95L1654.35 109.95L1649.36 89.02Q1647.92 83.26 1647.06 79.23Q1646.19 75.20 1646 73.76Q1645.81 75.20 1644.94 79.23Q1644.08 83.26 1642.74 88.92M1691.98 136.06L1683.06 136.06L1683.06 65.98L1695.34 65.98L1716.27 125.12Q1715.98 122.62 1715.74 118.92Q1715.50 115.23 1715.36 111.24Q1715.22 107.26 1715.22 103.71L1715.22 65.98L1724.24 65.98L1724.24 136.06L1711.86 136.06L1691.12 76.92Q1691.31 79.42 1691.50 83.02Q1691.70 86.62 1691.84 90.56Q1691.98 94.49 1691.98 97.95" fill="url(#paint2_linear_0_1)"/>
<g id="Group 1">
<rect id="Rectangle 1" x="26" y="168" width="12" height="184" rx="5" fill="url(#paint3_linear_0_1)" fill-opacity="0.9"/>
</g>
<g id="Group 1_2">
<rect id="Rectangle 2" x="26" y="38" width="12" height="119" rx="5" fill="url(#paint4_linear_0_1)" fill-opacity="0.9"/>
</g>
<ellipse id="Ellipse 1" cx="148.5" cy="573" rx="215.5" ry="214" fill="url(#paint5_linear_0_1)" fill-opacity="0.4"/>
<rect id="Rectangle 3" x="1229" y="48" width="300" height="300" rx="25" fill="#FFFBFB" fill-opacity="0.9"/>
<g id="placeholder-logo"><g transform="translate(1229,48) translate(0.0,60.0) scale(1.2000)"><g fill="#666666">
  <path d="m88.05,27.65c-3.15,4 -3.2,51.2 -0.05,54.35c2.75,2.75 71.7,3.15 74.45,0.45c2.85,-2.9 2.3,-53.85 -0.65,-55.9c-1.95,-1.35 -7.15,-1.55 -36.95,-1.55l-34.7,0l-2.1,2.65zm69.45,3.35c0.65,0 1,8.6 1,23.75l0,23.75l-33,0l-33,0l-0.25,-23c-0.15,-12.6 -0.1,-23.45 0.15,-24.1c0.35,-0.85 8.9,-1.05 32.25,-0.75c17.55,0.2 32.3,0.35 32.85,0.35z"/>
  <path d="m99.15,37.3c-6.85,7.35 4.25,17.35 11.4,10.25c1.35,-1.35 2.45,-3.65 2.45,-5.05c0,-6.45 -9.35,-9.95 -13.85,-5.2z"/>
  <path d="m135,42.5c-0.7,0.85 -5.25,5.15 -10.1,9.6l-8.85,8.1l-3.2,-3.2l-3.15,-3.15l-6.35,6.3c-5.55,5.5 -6.35,6.75 -6.35,10.05l0,3.8l28.5,0l28.5,0l0,-8.6l0,-8.55l-8.15,-7.7c-9.35,-8.85 -9.15,-8.7 -10.85,-6.65zm7.25,15.2c0.95,0.9 1.75,2.9 1.75,4.45c6.35,-5.05 4.75,-7.15 4.9,-11.55c0.95,0 0,0 0,0l-6.65,7.1z"/>
  <path d="m53.65,110.75c0.1,4.8 0.45,8.65 0.75,8.5c0.35,-0.15 1.3,-0.25 2.1,-0.25c1.1,0 1.5,-1.2 1.5,-4.75l0,-4.75l3.25,5c4.9,7.5 6.2,6.75 6.55,-3.75c0.25,-8.15 0.15,-8.75 -1.7,-8.75c-1.65,0 -2.05,0.8 -2.3,4.75l-0.3,4.75l-2.8,-4.75c-4.85,-8.25 -7.25,-6.9 -7.05,4z"/>
  <path d="m91,108.9c0,9.65 0.3,10.1 6.1,10.1c5.8,0 7.15,-2.65 1.65,-3.2l-3.25,-0.3l-0.3,-6.75c-0.25,-5.95 -0.55,-6.75 -2.25,-6.75c-1.75,0 -1.95,0.7 -1.95,6.9z"/>
  <path d="m151,102.45c0,0.25 1,2.15 2.25,4.2c1.2,2.1 2.45,5.8 2.75,8.25c0.65,5.9 4,6.95 4,1.25c0.05,-2.1 1.25,-5.85 2.95,-8.9l2.9,-5.25l-2.5,0c-1.8,0 -2.8,0.85 -3.75,3.1l-1.3,3.05l-1.25,-3.05c-1.1,-2.6 -6.05,-4.8 -6.05,-2.65z"/>
  <path d="m191,107.45c0,9.05 3.4,8.85 4.25,-0.2c0.45,-5 0.35,-5.25 -1.9,-5.25c-2.2,0 -2.35,0.4 -2.35,5.45z"/>
  <path d="m180.8,104.75c-1.3,5.35 0.65,13.6 3.45,14.35c2.3,0.6 2.75,0.4 2.75,-1.2c0,-1.05 -0.45,-1.9 -1,-1.9c-0.55,0 -1,-1.6 -1,-3.5c0,-1.95 0.45,-3.5 1,-3.5c0.55,0 1,-0.7 1,-1.5c0,-0.85 -0.45,-1.5 -1,-1.5c-0.55,0 -1,-0.7 -1,-1.5c0,-2.1 -3.65,-1.9 -4.2,0.25z"/>
  <path d="m71.55,106.55c-2.2,2.25 -2.05,9.7 0.3,11.8c4.5,4.1 10.15,0.75 10.15,-6.1c0,-4.85 -2,-7.25 -6,-7.25c-1.55,0 -3.55,0.7 -4.45,1.55zm6.25,5.8c0.25,3.05 0,3.65 -1.6,3.65c-2.3,0 -3.25,-2.65 -2.05,-5.85c1.25,-3.35 3.3,-2.1 3.65,2.2z"/>
  <path d="m105.75,106.1c-2.5,1.45 -2.45,9.95 0.1,12.25c4.3,3.9 10.15,0.35 10.15,-6.2c0,-6 -5.15,-9.05 -10.25,-6.05zm6.05,6.25c0.25,3.05 0,3.65 -1.6,3.65c-2.3,0 -3.25,-2.65 -2.05,-5.85c1.25,-3.35 3.3,-2.1 3.65,2.2z"/>
  <path d="m119.2,106.2c-3.8,3.8 -0.4,12.55 4.4,11.35c1.9,-0.45 2.45,-0.3 2.15,0.65c-0.25,0.7 -1.55,1.2 -2.85,1.1c-4.05,-0.3 -5.35,0.45 -3.85,2.25c0.85,1.05 2.6,1.45 5.35,1.25l4.1,-0.3l0.3,-8.75l0.3,-8.75l-4.35,0c-2.4,0 -4.9,0.55 -5.55,1.2zm6.6,4.45c0.4,2.85 -2.15,4.85 -3.75,2.95c-0.9,-1.1 -0.9,-2 -0.05,-3.6c1.35,-2.5 3.4,-2.15 3.8,0.65z"/>
  <path d="m133.55,106.55c-2.2,2.25 -2.05,9.7 0.3,11.8c4.5,4.1 10.15,0.75 10.15,-6.1c0,-4.85 -2,-7.25 -6,-7.25c-1.55,0 -3.55,0.7 -4.45,1.55zm6.25,5.8c0.25,3.05 0,3.65 -1.6,3.65c-2.3,0 -3.25,-2.65 -2.05,-5.85c1.25,-3.35 3.3,-2.1 3.65,2.2z"/>
  <path d="m167.65,106.85c-3.9,4.3 -0.75,13.15 4.7,13.15c2.4,0 5.65,-2.75 5.65,-4.85c0,-1.4 -2.65,-1.55 -3.5,-0.15c-0.95,1.55 -4.5,1.15 -4.5,-0.5c0,-1.1 1.1,-1.5 4,-1.5c3.15,0 4,-0.35 4,-1.8c0,-5.3 -6.85,-8.25 -10.35,-4.35z"/>
  <path d="m191,117.5c0,2.15 0.4,2.6 2.25,2.3c1.5,-0.2 2.25,-1 2.25,-2.3c0,-1.3 -0.75,-2.1 -2.25,-2.3c-1.85,-0.3 -2.25,0.15 -2.25,2.3z"/>
 </g></g></g>
</g>
<defs>
<linearGradient id="paint0_linear_0_1" x1="0" y1="198" x2="1584" y2="198" gradientUnits="userSpaceOnUse">
<stop stop-color="#3D052C"/>
<stop offset="1"/>
</linearGradient>
<linearGradient id="paint1_linear_0_1" x1="323" y1="-224" x2="323" y2="352" gradientUnits="userSpaceOnUse">
<stop stop-color="#28F6F2" stop-opacity="0.4"/>
<stop offset="1" stop-color="#17908E" stop-opacity="0.7"/>
</linearGradient>
<linearGradient id="paint2_linear_0_1" x1="148.5" y1="38" x2="148.5" y2="140" gradientUnits="userSpaceOnUse">
<stop stop-color="white"/>
<stop offset="1" stop-color="#999999"/>
</linearGradient>
<linearGradient id="paint3_linear_0_1" x1="38" y1="260" x2="26" y2="260" gradientUnits="userSpaceOnUse">
<stop stop-color="#D9D9D9"/>
<stop offset="1" stop-color="#737373"/>
</linearGradient>
<linearGradient id="paint4_linear_0_1" x1="38" y1="97.5" x2="26" y2="97.5" gradientUnits="userSpaceOnUse">
<stop stop-color="#D9D9D9"/>
<stop offset="1" stop-color="#737373"/>
</linearGradient>
<linearGradient id="paint5_linear_0_1" x1="27.5" y1="434.5" x2="148.5" y2="787" gradientUnits="userSpaceOnUse">
<stop stop-color="#2E21BC"/>
<stop offset="1" stop-color="#150F56"/>
</linearGradient>
<clipPath id="clip0_0_1">
<rect width="1584" height="396" fill="white"/>
</clipPath>
</defs>
</svg>
